# xmcd
#
# Track frame offsets:
#	150
#	15285
#	33506
#	58104
#	77212
#	92572
#	108726
#	124507
#	161937
#	178150
#	191160
#
# Disc length: 2827 seconds
# Revision: 0
# Processed by: cddbd v1.5.2PL0 Copyright (c) Steve Scherf et al.
# Submitted via: dBpowerAMP V12.0
#
DISCID=910b090b
DTITLE=Darren Jay and The Delta Souls - Drink my Wine
DYEAR=2012
DGENRE=Blues
TTITLE0=Rider 
TTITLE1=Workday Blues 
TTITLE2=Drink my Wine 
TTITLE3=Lovin' Man 
TTITLE4=Too Late Baby 
TTITLE5=Hoochie Coochie Man 
TTITLE6=Everybody Get Together 
TTITLE7=Tin Pan Alley 
TTITLE8=(Baby) Don't You Lose my Number 
TTITLE9=Zilla  
TTITLE10=River's Edge 
EXTD=
EXTT0=
EXTT1=
EXTT2=
EXTT3=
EXTT4=
EXTT5=
EXTT6=
EXTT7=
EXTT8=
EXTT9=
EXTT10=
PLAYORDER=
